<svg xmlns="http://www.w3.org/2000/svg" viewBox="0 0 1856 576">
  <path fill="#f7f7f8" d="M660.8 166.6h2.7c6.3.2 6.3.2 7.5 1.4-.5 24.9-.5 24.9-7 32-4.4 1.7-9.5 1.4-14.2 1.6q-5 .1-9.8 1.4l-1.4 6.8-.8 3.8q-1.3 7.7-1.8 15.4h15.4l3.3-.1h3c2.3.1 2.3.1 3.3 1.1a89 89 0 0 1-2 23l-.4 2.1a8 8 0 0 1-3.6 4.9c-2.5.4-2.5.4-5.3.5l-3.1.1h-3.3l-3.3.2-8 .2-3 9 4.5-.1 5.8-.1 2.9-.2h5.4a9 9 0 0 1 4.7 1.9c2.5 3.7 1.8 6.8 1.2 11l-.3 2.6-1.2 8.9-.5 3.2a2058 2058 0 0 1-6.2 41l-.6 4q-1.8 11-3.3 22.3l-.3 2.5-2 15-.4 3.3c-.8 3-1.5 4.5-3.7 6.7-3 .8-6 .6-9 .6h-7.1c-1.9-.6-1.9-.6-3.5-2.8-1.7-3.4-1.5-5-1-8.7l.6-3.6.6-3.8 2.2-14.5 1.6-10.5 1.9-12.2 3.8-27.1c.8-6.2.8-6.2 1.9-8.4h-3l-.3 2a2216 2216 0 0 1-7.3 50.6l-.5 3-3.4 22.2c-.6 4.1-1.3 7.6-2.8 11.4-4.7 3.1-9.9 2.4-15.3 2.2h-3.5c-8.6-.1-8.6-.1-10.9-2.4-.4-7 .5-13.5 1.5-20.3l.5-3.5 2-13.2.5-3 7.5-49-2 1c-.6 1.8-.6 1.8-.9 4l-.4 2.6-.5 2.8-.5 3a2306 2306 0 0 0-9.2 59.5l-.5 3.9-.4 3.3c-.8 3.8-1.4 6.8-4.3 9.5-3.1 1.9-5.4 1.7-9 1.7h-2L551 392l-31.6-.5-10.9-.2-3.7-.1c-2.8-.3-2.8-.3-4.8-2.3 0-2.2 0-2.2.3-4.9l.3-3q1-7.5 2.2-14.8l.5-3.2 3.8-23.7.5-3q1.2-7.8 3-15.4a127 127 0 0 0 2-12l.5-3.6L515 293h-2l-2.7.1h-2.7a18 18 0 0 1-12.2-5.8c-1.9-3-2.4-5.9-3-9.4l-.4-2q-1.5-8.4-2-16.9l-4-1-1.4 2.5q-5.7 10.1-11.7 20l-1.2 2A32 32 0 0 1 462 293c-2.9.6-2.9.6-5.7.7-4.4 0-4.4 0-8.3 2.3a70 70 0 0 0-1.5 7.5l-.4 2.4-2.2 13.2-6.6 40.4-2.5 15-.4 2.6c-2 11.5-2 11.5-5.4 14.9l-5.3.2h-11l-18.2.2h-19.9c-2.6-.4-2.6-.4-4.4-2.2-1.7-3-1.7-5.6-1.8-9-.2-5-.2-5-.9-9.9q-.8-5.8-.8-11.5v-2.4L366 333l-3-1-6.6 17.7C355 353 355 353 352 355q-4.4.3-8.9.2H265c-5.9 0-5.9 0-7-1.2q-.6-9.5.8-19l.5-3.8c.7-3.4 1-4.3 3.7-6.2 3-.4 3-.4 6.9-.4h9l17.4-.2 31.7-.2h3.8a22 22 0 0 0 7.2-1.2c1-1.7 1-1.7 1.4-4 1-3.6 2.4-6.5 4.4-9.7 11-18 15.2-35.3 18.1-55.9a784 784 0 0 1 6.9-40.6l2-11.6q0-1 .4-2.3l.6-4.4c.7-4 1.5-7.3 4.2-10.5 2.2-.6 2.2-.6 4.7-.6h2.8l3 .1h2.8c5 0 7.8.1 11.7 3.5q-1.2 9.8-2.9 19.6l-.5 3.2-3.1 16.6a660 660 0 0 0-7.3 46.8l-.4 3c-.6 4.9-1 9 .2 13.8q1.3 5.4 1 11v13.9l-.1 3.1q.3 4.5 1.1 9l.3 6.2v3.6l.2 3.6c.1 12 .1 12 2.5 23.6 6.3 1.2 10.4 1.3 16-2 2.1-3.3 2.6-6.6 3.2-10.4q0-1 .3-2l1-6.3 5.7-37.4q0-1.2.3-2.3 3-18.7 6.4-37.5 2-11.2 3.7-22.6c.8-4.9 1.5-9.4 4.4-13.5 2.5-.8 2.5-.8 5.2-.9h2.7l2.1-.1c1-3.2 1-5.6.6-9 .6-3 2-4 4.4-6 2.7-.5 2.7-.5 5.8-.5h16.6c2.6.5 2.6.5 4.4 2.1a20 20 0 0 1 1.9 8.7l.2 3.2.1 2.5 22.4.2h3.6c3.2 0 3.2 0 6-2.2 1-2.3 1-2.3 1.6-5 .8-3.2 1.5-5.1 3.4-8 7.6-1.4 20.4-3.4 27 1l-1 13 7 2c1.4 5.7.6 10.7-.2 16.4l-.5 3a420 420 0 0 1-3.4 19.8q-1.9 10.2-3.5 20.3 0 1-.3 2-1.9 11.4-3.2 22.7-.7 6.2-2.3 12.4c-2 7-2.7 14.4-3.6 21.7l-.4 2.9-.3 2.7c-.3 2.1-.3 2.1-1.3 4.1l-1 9h29l1.2-10.2a1175 1175 0 0 1 7.6-50.6l1.7-10.7.5-3.2.5-3.1 1-6.8q0-1.7.4-3.5l.3-3.1c1-3.3 2.1-4.7 4.8-6.8 2.4-.5 2.4-.5 5-.4h2.8l3 .1 3 .1 7.2.2v-9h-2l-9.4-.4h-3.2l-3.2-.2h-2.9c-2.3-.4-2.3-.4-4.3-2.4q.1-6 1-12l.4-3.5c1.4-10.2 1.4-10.2 4.6-13.5 2.5-.5 2.5-.5 5.5-.6l3.3-.1h3.4l3.4-.1 8.4-.2 1.4-7 .4-2q1.4-6.5 2.2-13l-2.4.5q-6.7.7-13.4.6h-7.4c-1.8-.1-1.8-.1-2.8-1.1q-.2-8.7 1.2-17.3l.3-2.4.4-2.4.3-2c1.3-3 2.8-3.6 5.8-4.9q5.4-.8 10.9-1.1l3.2-.3 26.5-2 11-.8 2.4-.2 2.1-.2c2.3-.3 2.3-.3 4.8-3 4.3-3.4 7.6-3 13-2.8M460 256c-5 3.7-5 3.7-8 9-.2 2.7-.2 2.7 0 5 3 1.5 4.7 1.6 8 1 3-3.2 5-6.4 5-10.9-1.2-2.6-2.3-3.1-5-4.1m49.7 3c-2.1 3-2.1 3-1 6.7 1 3.3 1 3.3 3.3 5.3 3.3-.3 4.6-.6 7-3 1.1-2.8 1.1-2.8 1-6-2.1-3-2.1-3-5-5-3.1-.3-3.1-.3-5.3 2"></path>
  <path fill="#fafafa" d="M916 166.5h17l3.9.1c3.1.4 3.1.4 4.8 1.7 1.3 1.7 1.3 1.7 1.5 3.6l-.3 2.1-.3 2.3-.4 2.4-.3 2.4-.9 5.9h3.6l27.5.6h2.6c6 .2 6 .2 8.3 2.4q-.2 4-.7 8l-.4 2.4c-2 14.6-2 14.6-4.9 17.6-2.2.3-2.2.3-5 .4l-3 .1-3.2.1-3.3.1q-11 .5-21.9.2c-2.6 0-2.6 0-4.6 1.1-.7 2.7-.7 2.7-1.1 6l-.5 3.3q-.4 4.3-.4 8.4v4.3l30.3.5h2.5c2.4 0 2.4 0 6.2.5 2.7 4 1.8 7.2 1.3 11.8l-.4 2.6-.6 5.2q-.4 3-.5 6.3c-.6 10.2-5.3 15.3-12 22.3q-4.4 4.6-8.5 9.5l-1.6 1.9q-6 6.8-11.6 13.8-4.5 5.3-9.4 10.5c-1.9 2-1.9 2-2.7 5.1.8 1.9.8 1.9 2.2 3.8l1.5 2.2 1.7 2.4 1.6 2.4 14 20.2 1.2 1.7 6.2 8.5c3.9 4.2 7.5 6.5 13 7.3H1201l162.5.1h3.8l2.8.4c2 3 2 3 1.7 6.6-.7 3.4-.7 3.4-1.7 4.4q-5.2.4-10.5.6h-3.5q-25.2.8-50.5.6h-12.2a46963 46963 0 0 1-195 0 17570 17570 0 0 1-126.9 0h-34c-12.4.3-12.4.3-17.4-3.4q-3.3-3.7-6-7.8l-2.2-3.1-1.5-2.6q-3-4.8-6.2-9.4C902 364 902 364 902 362c-5 2.5-8.4 6.4-12.1 10.5l-5.7 6.1c-2.3 2.4-2.3 2.4-4.5 5.4-3.9 4.6-6.9 8-13 9q-6 .4-12.2 0l-12.5-.3h-2.3c-3-.2-5.2-.4-7.7-2-3-5-.8-13.9-.2-19.6l.2-2.2c.6-5.4.6-5.4 2.3-7.6 2.1-1.6 3.2-1.6 5.9-1.6h5c7.7 0 7.7 0 14-3.8q1.5-1.9 2.8-3.9 1.6-2 3.3-3.7l1.7-2q2.2-2.6 4.7-5 .6-.8 1.4-1.5l4-4.2c2-2.4 2-2.4 2.4-5.1-.6-3.2-1.9-5-3.7-7.6q-6.5-9.3-12.4-19l-6.8-10.4-2-3-1.6-2.4c-1.2-2.6-.8-3.4 0-6.1l30-.5h2.5c4.3 0 6 0 9.4 2.8 3.3 4.3 3.3 4.3 4.6 6.3l1.1 1.8 1.2 2 1.2 1.9 3 4.7a58 58 0 0 0 10.3-10.1l2-2.6 1.2-1.5 6.2-7.5 2.4-3 1.9-2.3h-2.8l-63.8.2h-4c-3.3-.2-5.5-.8-8.4-2.2 1-21.2 1-21.2 3-27 3.9-2.6 7.1-2.4 11.6-2.4l29.4-.6c1.6-2.9 2.4-5.3 2.9-8.5q0-1.3.3-2.6l.4-2.7.4-2.6 1-6.6-34.2-.5h-5.5l-2.4-.1c-1.9-.4-1.9-.4-3.9-3.4q.2-3.8.8-7.6 q0-1.1.3-2.2c2-14.3 2-14.3 4.9-17.2 1.9-.3 1.9-.3 4.2-.3h5.4l2.8-.1 28.9-.5c1.7 0 1.7 0 2.7-1.1q.6-4.6 1-9.4c1-7.9 3-10.1 11-10.1"></path>
  <path fill="#f8f9f9" d="M186.7 166.8h15.4l18.9.2.8 1.8 1 2.5 1.1 2.3 1.1 2.4.9 2c1.6 3.4 2.6 4.8 6 6.2 4.8 1.2 9.6 1.1 14.5 1.1h27.4c4.8 0 8.3 0 12.2-3.3l2.8-4.2c3.7-5.3 7.3-9.2 13.8-10.5q5.1-.5 10.2-.3l6.7-.1c7.9-.2 7.9-.2 11.5.1l2 2c-.2 3.2-.6 4.6-2.8 6.8l-4.5 3.4c-2 1.7-2 1.7-2 4.5l.3 2.3 1.9-.1h2.5l2.4-.2 2.2.3c3 4.6 1.6 8.7.8 14l-.4 3-.4 3-.4 2.7a8 8 0 0 1-3.6 5.3c-2.7.4-2.7.4-6 .4h-11.9l-15.4.1h-19.1l-3.7.1h-3.3l-2.6.4a25 25 0 0 0-3.5 11.3l-.4 2.5-2.9 18.1-.3 2.4a100 100 0 0 0-.9 15.7h27c2.7-8 2.7-8 4-15.9l.5-3.6 1-7.6.4-3.7.4-3.3c.8-3.2 1.3-4.7 3.7-6.9 2.8-.5 2.8-.5 6-.5h3.7l3.8.1h3.8c9.3.1 9.3.1 12.7 2.4a523 523 0 0 1-6.2 38.8q-2.1 10.2-3.1 20.6c-.9 3.4-2.2 5-4.7 7.6-2.7.6-2.7.6-5.7.6H299l-3.9.1H285l-14.4.1h-14.1c-2.5 0-2.5 0-4.5 1.2a93 93 0 0 0-1.8 9.5l-2 12.2a256 256 0 0 0-3.4 29.4c-.4 5.4-.4 5.4-2.3 7.6-3.8 2-7.3 1.7-11.4 1.7h-77.9c-5.8 0-5.8 0-8-1.8-2.2-2.9-1.1-5.9-.7-9.3q1.5-8.7 3.5-17.3c6.5-1.2 13-1 19.6-1l30.3.2h9.7c2.7 0 2.7 0 5.4-2.2.8-2.3.8-2.3 1.2-5l.5-3 .5-3.3.5-3c1.3-7.4 1.3-7.4 1.3-14.7-1.7-1.7-4-1.2-6.4-1.2h-7.3l-6-.2-10.3-.1-20-.3h-6.6c-2.4-.2-2.4-.2-3.4-1.2a92 92 0 0 1 1.9-20.9l.5-3.7 4.3-27 .6-3.6.5-3.3.5-3c.8-2.8 1.7-4.4 3.7-6.5 2.8-.5 2.8-.5 6.2-.4h3.7l3.8.1 3.8.1 9.5.2c2 2.8 2 4 1.7 7.5l-1.2 6.5-3.5 18.6a44 44 0 0 0-1 8.4l13.8.1h3.9l3.8.1h3.5c3.9-.2 3.9-.2 7-2.2a59 59 0 0 0 1.6-8.2l.4-2.4 3-20.5q1.2-8.5 3-16.9h-2.4l-54.7-.8h-3.4c-2.5-.2-2.5-.2-3.5-1.2-.8-8.3-.7-20 4-27 3.3-.5 3.3-.5 7.1-.7l4-.2 2.9-.1q-.8-5.8-3-11.4l-1.2-2.6-.8-2c2-2 2-2 5.7-2.2"></path>
  <path fill="#f8f8f8" d="M157 227c.3 6.1-.5 11.7-1.6 17.7l-.5 2.7-2.7 14.5-8.8 46.2a514 514 0 0 0-6.3 38.6l-.4 3.2a38 38 0 0 0 .3 13.1h3.3l203-.4h2.6c3.3 0 5.7.2 8.6 1.8 1.9 2 2 3 2 5.6v2.4l-.1 2.4v2.4c-.1 5.5-.3 10.7-4.4 14.8q-4.2.3-8.5.2H139.8c-5.7 0-5.7 0-6.8-1.2l-4.2-.1h-13c-1.8-.1-1.8-.1-2.8 1.1q-5.4.4-10.9.3l-3 .1h-5.8c-2.3-.4-2.3-.4-4.1-2.3-2.2-3.9-1-7.8-.2-12.1l.5-2.6C91 368.5 94.3 365 100 361l2-1a91 91 0 0 0 1.9-9.2l1.2-7 .8-4.5q1.7-9.6 3.1-19.3l3.8-23 4.3-24.6 1-5.5.5-2.5q.6-3.1.4-6.4c-2.1-3-2.1-3-5-5-3-2.4-3-2.4-3.3-5.3l.2-2.7v-3l.3-3 .1-3.2c.4-7.5.4-7.5 2.7-9.8q4-.4 8.1-.4l2.5-.1 17.9-.4 2.3-.1c10-.2 10-.2 12.2 2m660-60.3h18.2c2.8.3 2.8.3 5.8 2.3.4 6-.3 12-1 18l-.3 2.6-.7 6.4 1.9.1 2.4.2 2.4.2c2.7.6 3.7 1.2 5.3 3.5q0 4.4-.7 8.8l-.3 2.3c-1.4 11.6-1.4 11.6-4.3 15.8-3.4 2.3-7.7 2.4-11.7 3.1-2.1 9.6-3.3 19.4-4.6 29.1L827 277l3.1-1.8 4.1-2.3 2.1-1.1 2-1.1 1.9-1c2.3-.9 3.5-.5 5.8.3l-1.7 22.5-.2 2.3-.2 2.2-.2 2c-1.1 3.2-3 4.8-5.7 7l-5.6 2.4c-4 1.7-8.1 3.4-10.4 7.3-1.8 5-2.2 10.3-2.6 15.6l-1.8 15.4a709 709 0 0 1-3.9 30l-.5 4.4-.5 3.7c-1.1 5.1-1.1 5.1-3.7 7.2q-4.5.8-9.1.5h-25.3c-3.8 0-6 0-9.2-2.3-1.6-2.6-1.8-3.6-1.4-6.7l.3-2.6q0-1.3.3-2.6l.3-2.7q.8-8 3.1-15.6c3.3-1.1 5.7-1.1 9.2-1h5.8l.1-1.9q1.1-12 2.9-24.1l-1.5.8-6.8 3.8-2.4 1.3-2.3 1.2-2.1 1.2c-1.9.7-1.9.7-4.9-.3-1.7-5-.4-10.1.3-15.3l.7-6.1.5-3.9.4-3.5a14 14 0 0 1 7.1-8.2l4-1.4c4.8-1.6 8.7-3.5 12-7.6 3.6-9 4-19 4.7-28.6l1.1-10.7 1.9-18.8q.4-4 1.3-7.9l-3.6.1h-4.7l-2.4.2H785c-2.5-.4-3.4-1.3-4.9-3.3-.1-3.2-.1-3.2.2-7l.2-2c1.4-15.5 1.4-15.5 3.9-18.6 2.1-1.7 3.2-1.8 6-1.7h2.4l11.3.3.2-2 1.2-9.2.4-3.2.3-3 .4-3c1.3-7 3-9.9 10.5-9.9m-70.7.1h11.8c9.7 0 9.7 0 10.8 1.2q.3 9.1-1.3 18.1l-.8 5.3-.5 2.8-2 14.2-.5 3-8.2 59.3q-2 15.2-4.7 30.3 1.4 0 2.8-.3c6.5-.6 6.5-.6 9.2-.7 1 1 1 1 1.1 4.5q-.2 7.2-1.4 14.3l-.4 2.5c-1.2 8-1.2 8-4.3 10.7-2.5.8-2.5.8-5.2 1.3l-2.7.4-2.1.3a64 64 0 0 0-3.4 16.3q-1.6 13.2-3.6 26.4l-.5 3.2-.4 3-.4 2.7c-.8 2.9-1.5 4.4-3.7 6.4-2.8.5-2.8.5-6.1.5h-3.7l-3.8-.1h-3.8c-9.3-.1-9.3-.1-11.6-2.4-1.5-10.6 1.3-21.8 3-32.2l3-18.8-3.7.6a1088 1088 0 0 1-41.3 5.6l-3.6.5q-5.2.5-10.4.3c-2-2-2-2-2-5.2q0-2.1.2-4.1l.1-2.2c1.4-17.2 1.4-17.2 5.7-21.5 2.3-.5 2.3-.5 5.3-.9q1.6 0 3.4-.4l3.6-.4 3.8-.4 31-3.8 3.5-.4 3-.3c2.5-.3 2.5-.3 5.4-1.4q4.4-27 8.1-54.2l1.5-10.6 5-36 .4-2.5 3-21.7.5-3.3.4-3 .4-2.6c1.6-4.9 5.8-4.3 10-4.3"></path>
  <path fill="#f5f6f6" d="M460.6 300.7H502c2 .3 2 .3 4 2.3-.1 3-.1 3-.7 7l-.3 2.2-1 6.8-.3 2.2-2.6 15.5-.4 2.4q-2.4 15-5.5 30-1.1 4.9-1.6 10.1c-.7 4.4-1.3 5.8-4.6 8.8q-5 1-10.1.8h-3l-15.8.3-9 .1H446c-2-.2-2-.2-5-2.2a72 72 0 0 1 2-21.3l7.2-41.9 1.7-9.7.6-3.4.5-3 .4-2.7c1.2-4.1 3.3-4.3 7.2-4.3m11.8 25.9a21 21 0 0 0-4 10.6l-.3 2-1.7 10.5c-1.3 8.7-1.3 8.7-.4 17.3 4.5.4 4.5.4 8.6-1 2-3 2.4-5.7 3-9.1l.4-2.1 2-11.1c2.6-9.6 2.6-9.6.8-18.5-3.7-2.5-5.5-1.5-8.4 1.4"></path>
  <path fill="#fafafa" d="M490.3 164.7h22.9c2.2 0 2.2 0 5.8.3 2.7 4 2.2 6.2 2 11a27 27 0 0 0 8.3 1h5.2c16.8-.1 16.8-.1 22.5 1 2 2 2 2 2 4.8l-1 10.2-.2 2.5c-.3 4.7-1.2 7.3-4.8 10.5-3.7.7-7.3.6-11.1.6h-3.4l-19-.1-39.4-.2-43.1-.3c-1.2-5.4-.6-9.7.3-15.1q0-1.4.3-2.8l.4-2.6.4-2.4c.8-2.6 1.3-3.6 3.6-5.1 3.2-.4 3.2-.4 7.2-.4h2.1l9-.1h6.5l4-.1c3.1-.1 3.1-.1 5-1.7 1.4-1.9 1.4-1.9 2.2-5.3 1.9-6.5 6.5-5.7 12.3-5.7"></path>
  <path fill="#fcfdfd" d="M1451.9 380.9h122l158.6-.1h9.3c2.2.2 2.2.2 4.2 2.2.3 4 .3 5.5-2 9-2.2.4-2.2.4-4.9.4h-290.9l-2.2-.4c-2-3-2-3-1.7-6.6l.7-3.4c2.5-1.2 4.1-1.1 6.9-1.1"></path>
  <path fill="#f1f2f2" d="m1034.9 256.6 2.7-.1c2.4.5 2.4.5 4 2.7 1.5 3 1.8 4.8 1.8 8.1v6.6l.1 3.6.3 31.8.7 27.8.4 11 .4 9.5c.1 3.4 0 5.1-2 7.8-3.3 2.3-5.5 2-9.3 1.6l-3-2q-.6-4.4-.7-8.6v-2.5l-.3-5.9h-16l-1.3 5.6a41 41 0 0 1-4.7 12.4c-3 1.5-5.7 1.2-9 1l-2-2q.8-8.9 3.7-17.4l.8-2.8 8.5-28.2 13-43.6.8-2.5c4.1-13.6 4.1-13.6 11-13.9M1030 288q-3.4 10.3-6 20.8l-3.2 11.6-.6 2.1c-.9 3.5-1.6 6.1-.2 9.5l6.8.3 2.2-.3c3.6-5.3 3.2-11.7 3.3-17.9v-2.2l.7-22.9z"></path>
  <path fill="#eeefef" d="m1779.4 294.8 3.5-.1h6.5c2.6.3 2.6.3 4.3 1.4 2 2.9 1.4 5.1 1 8.6l-.1 2-.4 4.2-.8 9.7a4774 4774 0 0 1-6.2 64.6l-.4 2.6c-1 2.8-2.3 3.7-4.8 5.2q-5.6.7-11 .4l-3.1.1h-5.6c-2.3-.5-2.3-.5-4.1-2.3-1.7-3.1-1.1-5-.2-8.2l2-3a74 74 0 0 1 8.1-.7h2.3l5.6-.3 2-12-3.4.2-4.3.1-2.3.1c-3.6.1-5.5 0-8.2-2.5-2.2-3.6-2.3-5.6-2.2-9.8V353a406 406 0 0 1 2.7-34.9l.5-5.6.3-2.6c.5-5.2 1.5-9.3 3.9-13.9 4.2-2.1 9.8-1.2 14.4-1.2m-6 13.3c-2 2.7-2 5-2.3 8.3l-.4 3.9-.2 2-.6 6a170 170 0 0 0-.9 24.7c1.9 1.9 4.6 1.2 7 1.3q1 0 2-.3c2.4-3.6 2.5-5.9 2.9-10.2l1.1-13.4c1.1-10.7 1.1-10.7 1-21.4-3.3-2.2-6-3.4-9.6-.9"></path>
  <path fill="#f1f1f1" d="M1203.6 255.8h2.9l3.5.2 2.3.1 15.7.9c1.5 3 1.2 5.7 1 9-1 2.8-1.4 3.7-4 5l-7 .4-2.6.2h-2.7l-6.7.4-1.5 11.8-.4 3.3-.4 3.3-.4 3c-.4 2.8-.4 2.8-.3 6.6 3.8 2 8.6 1.4 12.8 1.5l3.2.5c2.3 3.4 2 5 1.7 9-1 3-2.2 4.1-4.7 6q-3.9.6-7.7.8h-2.2l-5.1.2-1.5 10.4-.4 2.9q-1.4 9.3-1.1 18.7l19 1c1.2 2.5 1.2 4.2 1.2 7v2.6c-.2 2.4-.2 2.4-2.2 5.4-6.8 1.5-13.6 1-20.5.6l-3.4-.2-8.1-.4c-1.1-5.1-.8-9.5-.2-14.7l.3-2.5 3-26.6 5.6-49 .8-6 .4-3.3.4-2.7c1.5-4.6 4.9-5.6 9.3-5.4"></path>
  <path fill="#eeefef" d="M1406.4 294.6h10.7a9 9 0 0 1 5.3 1.9c2.4 3.8 2 7 1.6 11.5l-.2 2.6-.8 8.3-.3 3-2.4 22.4-.3 2.9c-1.5 13.6-1.5 13.6-5 18.8-6.6 1.3-13.3 1.1-20 1l-.1 2-.7 8.8-.2 3-.3 3-.2 2.7c-.6 3-1.4 4.4-3.5 6.5-3.6.4-3.6.4-7 0-2-2-2-2-2-5.1l.3-4 .1-2.1a677 677 0 0 1 2.6-28.3l4.5-46c1.9-13.1 5.8-12.9 17.9-12.9m-5 14a25 25 0 0 0-2.6 10.2l-.2 2.3-1.8 16.8-.3 2.2q-.7 6-.5 11.9c1.5 2.1 1.5 2.1 4 3 3.1.2 3.1.2 6-1 3-4 3.5-7.3 4-12.2l.1-2 1-11c.9-9.9.9-9.9.9-19.8-2-2.4-2-2.4-5.4-2.4s-3.5 0-5.2 2"></path>
  <path fill="#ededed" d="M1603 257c2.8 3.6 2 7.6 1.5 11.8L1602 295l3.6-.1h4.7l2.4-.2h4.4c2.5.4 3.4 1.3 4.9 3.3 1.6 11.8-.6 24.6-1.6 36.4l-1.3 16.1-.3 3c-.8 9-.8 9-2.8 12.5-3 1-3 1-6 1l-3-2c-1.3-10 .5-20.8 1.5-30.7a211 211 0 0 0 1.5-26.3h-7a20 20 0 0 0-2.6 9.2l-.3 3.1-.3 3.4-2.5 28.8-.2 3.3-.3 3.1-.3 2.8c-.6 2.7-1.2 3.7-3.5 5.3-3.6-.2-3.6-.2-7-1-1.5-3-.9-6-.7-9.4l.2-2.2 2-27.7.3-2.8 4.3-54.8.2-2.3c.3-3.7.6-6.8 2.7-9.8 3-1.5 4.9-.8 8 0m-246.1 37.4h12.5c7.5.2 7.5.2 10.6.6 2.5 3.8 2.1 5.2 1.8 9.7l-.2 2a613 613 0 0 1-2.6 28.3l-1.6 15.8-.3 2.9c-.5 4.7-1 8.4-4.1 12.3-4.2 2.1-9.7 1.3-14.4 1.3l-6.1.1h-7.5c-3-.4-3-.4-5-2.1-1.3-2.8-1.2-4.3-.9-7.5l.4-3.4 4.8-43.4.4-3.1c1-8.6 2.6-13.5 12.2-13.5m.1 15.6c-2.4 7.8-2.7 16.4-3.5 24.5l-1 10-.4 3.6c-.3 3-.3 3 .9 5.9 3 1.5 5.6 1.2 9 1a8 8 0 0 0 3.6-5.3l.3-2.7.4-3 .3-3 .4-3c3.2-15.4 3.2-15.4.7-29.7-4-3-7.9-1.9-10.7 1.7"></path>
  <path fill="#edeeee" d="m1077.2 294.8 10.8-.1h3.8c3.2.3 3.2.3 5.1 1.4 1.7 3 1.2 5.6 1 9l-.2 2.2q-1.3 15-3.1 29.8l-1.2 10-.7 6.5-.4 3q0 1.5-.3 2.8l-.3 2.5c-1 2.8-2.1 3.7-4.7 5.1-6.4-.4-6.4-.4-8-2-.5-9.4 1-18.7 2.3-28 1.8-13.5 1.8-13.5 1.7-27-1.2-1.4-1.2-1.4-4.4-1.3-3.6-.1-3.6-.1-5.3 2a16 16 0 0 0-2.1 7.3l-.4 3-.3 3.2-.4 3.3-2.6 24.3-.3 3.2-.4 3-.2 2.6a12 12 0 0 1-3.6 6.4c-3.5.5-3.5.5-7 0-2.1-2.1-3-3.3-3.1-6.4l.3-2.6.4-3.1.5-3.4.9-7.3.2-2a702 702 0 0 0 3.1-28l1-9c.3-3.4.8-6.3 2.7-9.2 4.4-2.2 10.3-1.2 15.2-1.2"></path>
  <path fill="#f7f7f7" d="m681.2 242.6 10.8-.2h3.8c3.2.6 3.2.6 5 2.9l1.2 2.7 1 2 .8 1.7 1 2 2 4.2a31 31 0 0 0 6.5 9.4c2.7 3 3 4.9 3 8.9l-.8 5.6-.3 2.8c-.9 6.9-.9 6.9-3.2 10.4-4.3.7-8.6.5-13 .4l-3.6.1h-6.7c-2.7-.5-2.7-.5-4.5-2.4q-1.7-3.2-2.9-6.7a30 30 0 0 0-6.4-10.2c-4.7-5.6-5.7-11.1-6.9-18.2l-1.2-4.5a23 23 0 0 1-.8-8.5c3.7-3.7 10.2-2.4 15.2-2.4"></path>
  <path fill="#efefef" d="M1524.3 294.7h16.2c2.5.3 2.5.3 5.5 2.3 1.3 8-.2 17-.8 25l-.2 3c-.9 10.2-.9 10.2-4 13q-4.9.8-9.7.3h-2.7l-6.6-.3v15h8l3-9c3.9-1 5.5-1 9 1 .2 7.4.2 14.7-4 21-4.4 1.5-8.7 1.3-13.4 1.4h-2.8l-2.8.1h-2.6c-3.7-.8-5.1-2.4-7.4-5.5-.3-3-.2-5.5 0-8.5l.3-2.5 1.1-13.3 1.2-13.4.8-8.2.5-5.3.2-2.5c.7-7.5 2.8-13.5 11.2-13.6m.7 13.3c-1.5 3-1.4 6.3-1.6 9.6v2.2l-.4 5.2h11q1-5.9 1.3-11.8v-2.3l-.3-1.9c-3.8-2.5-5.7-2.4-10-1"></path>
  <path fill="#f5f6f6" d="M680 179.9h5.9l22.1.1 1.2 2.5 1.6 3.2 1.6 3.2c3.4 7.2 3.4 7.2 8 13.6a12 12 0 0 1 3.8 9.5c-.4 13-.4 13-4.2 18-3.7 1.9-8.3 1.2-12.4 1.2l-2.9.1h-5.3c-3-.4-4.3-1.3-6.4-3.3-1.5-2.6-1.5-2.6-2.9-5.7a48 48 0 0 0-6.3-10.4A48 48 0 0 1 676 181c1-1 1-1 4-1.1"></path>
  <path fill="#edeeee" d="M1238 294.5h22.9c3.1.5 3.1.5 5.5 2.1 2.2 3.3 1.9 5.2 1.5 9.1l-.2 2.1-.7 7.2-2.1 21-2 18.8-.2 2.7-.3 2.3q-.5 3.4-2.4 6.2c-3.4 1-3.4 1-7 1-1.7-1-1.7-1-3-3-.2-2.8-.2-2.8.1-6.4l.2-2q1.1-12.8 2.7-25.5 1.3-10.5 1-21.1c-4.6-1.2-4.6-1.2-8.9.1-2 3.5-2.2 7.6-2.6 11.6l-.3 2.8-.3 3-3 28.2-.2 2.7-.3 2.4c-.4 2.4-1 4.1-2.4 6.2-3.4.9-3.4.9-7 1l-3-2c-1.2-7.7.4-16.2 1.2-24l3.2-30 .3-3.4.4-3.3.3-2.8c1-4.2 2.3-6.3 6.5-7"></path>
  <path fill="#eee" d="m1683.9 294.7 3.6-.1h6.8c2.7.4 2.7.4 4.6 2.2 1.8 3.6 1.3 7.3 1 11.2l-.9 13-.2 2.2-1.2 16.7-.2 2.4-.6 7-.1 2a30 30 0 0 1-4 14.6c-2.4 1.6-4.2 1.5-7.1 1.5h-16c-3.1-.5-4.5-1-6.6-3.4-2-10.9.6-23.8 1.5-34.8l1.3-15.7.3-2.9c1.2-13.9 4.3-15.8 17.8-16m-5.5 13.9a22 22 0 0 0-2.3 10l-.2 2.2-.6 7-.7 9.1-.2 2.1q-.7 7-.4 14c1.8 2.2 1.8 2.2 3.9 2.1l2.1-.2 2.1-.2c2-.5 2-.5 3-2.5.9-2.2 1.3-3.9 1.5-6.3l.2-2.4 2-24.6.1-2.6c.5-4.3.5-4.3-1.2-8-1.8-1.6-1.8-1.6-4.7-1.7-3 .1-3 .1-4.6 2m58.6-13.8h13.4c3 .4 3.7 1 5.6 3.3q.3 4.6 0 9l-.2 2.9q-.6 10.5-1.7 21l-1.5 18.9-.3 3.5c-.4 4.8-.7 7.9-3.6 12a12 12 0 0 1-8.1 2.3h-3l-3.2-.1h-3.2c-7.7 0-7.7 0-10-1.9-4.8-6.2-2-17.4-1.4-24.8l.2-3.2 1.8-22.8.3-3c1-11.2 2.8-17 14.8-17.1m-1.9 13.6c-2.4 3.7-2.5 7.3-2.9 11.6l-.2 2.4-1.4 17.4-.2 2.3-.4 6-.2 2.9.2 2.1c3.9 2.6 5.6 1.8 10 1 2-6.1 2.6-12 3.1-18.5l.3-3.2q.9-12.2.6-24.3c-4.7-1.2-4.7-1.2-8.9.3"></path>
  <path fill="#f3f3f3" d="M341.6 223.7h13.3c2.1.3 2.1.3 5.1 2.3l-2.2 14a979 979 0 0 0-5 29.2c-3.2 20.2-3.2 20.2-6.8 23.8-2.2.2-2.2.2-5 .2h-6.1l-3.2-.1-7.7-.1c-1.4-3.9-.7-7.4 0-11.3l.4-2.2 3.8-21.8 1.9-11 1.6-9.3.6-3.4.5-3.2.5-2.7c1.4-4.1 4.4-4.4 8.3-4.4"></path>
  <path fill="#f3f4f4" d="M412.8 213.7h3.2q5 .4 10 1.3c2.3 5.3 1.9 8.8.7 14.3l-.4 2.1c-1.1 5.2-1.1 5.2-2.3 7.6l-.9 5.6-.5 3.5-.5 3.7c-3.8 26.3-3.8 26.3-6.7 30.5-3.4 2.4-6.4 2.2-10.4 2.1h-2.2q-4.3.2-8.3-1.6c-2.5-3-1.7-5.9-1.4-9.7 1-10.6 3.3-21.2 5.3-31.7l3-17.4a20 20 0 0 1 3.4-8.5c2.8-2 4.6-2 8-1.8"></path>
  <path fill="#ececec" d="m1644.4 294.7 3.5-.1h6.3c2.8.4 2.8.4 5.2 2 2.3 3.5 1.9 6.6 1.5 10.6l-.2 2.6-1.1 14-2.5 30.5-.2 2.8-.2 2.6-.2 2.3c-.6 2.5-1.4 3.5-3.5 5-3.6-.2-3.6-.2-7-1-1.5-3-1-5.9-.7-9.1l.2-2.3q.5-8.3 1.3-16.7c1.4-14.4 1.4-14.4 1.2-28.9-1-1.2-1-1.2-3.4-1.4-2.7.1-2.7.1-4.2 2.3-2 4.5-2.2 8.8-2.5 13.7l-2.1 28.7c-.4 4.9-1 9.1-2.8 13.7-2.8.6-2.8.6-6 1l-3-2c-1.6-11.6.6-24.3 1.6-35.8l1.3-15.8.3-2.8c.4-5.1 1-9.8 2.8-14.6 4.2-2.1 9.7-1.3 14.4-1.3"></path>
  <path fill="#ededed" d="M1490.3 255.5h2.1l11.2.1c11 .1 11 .1 14.4 2.4q1.5 6.1-1.4 11.6c-4 2.2-8 1.7-12.6 1.4l-.2 2.2q-1.6 21-3.5 42.2l-3.4 39.2-.2 2.1c-.6 6.5-.6 6.5-2.7 9.3-3.4.9-3.4.9-7 1l-3-2c-1.7-8.5.7-18.7 1.5-27.3l3.9-41.6.2-2.5.6-6.9.4-4 1.4-11.7-2.3.1h-3l-3.1.2-2.6-.3c-2.1-3.2-2.3-5.2-2.5-9 1.4-6.2 6.3-6.5 11.8-6.5"></path>
  <path fill="#edeeee" d="M1438 295c2.2 3.3 2.3 4.7 2.6 8.5l.3 3.4.2 3.5.3 3.4q.8 11.5.6 23.2h2l.4-2c7-36.4 7-36.4 10.6-40 3-.3 3-.3 6 0 2.6 4 1.9 6.6 1 11q-1.2 5.3-2.7 10.4l-.8 3-10.7 39.1-2.9 10.3-.7 2.7C1439 390 1439 390 1436 393q-4 .3-8 0l-1-1c.5-6.3 2-11.7 4.3-17.6 4.6-13.4 1-29.8-.3-43.6l-2.2-28.8-.1-2.1c.9-5.2 4.8-5.5 9.3-4.9"></path>
  <path fill="#ededed" d="M1804 294.6c3 .4 3 .4 5 1.4 1.2 3.5 1.3 6.5 1.5 10.1l1.2 21.4q.3 4.4 1.3 8.5l.6-3 5-25.1c1-4.5 2-9.5 5.4-12.9 3-.2 3-.2 6 0 2.6 4 2 5.4 1 10l-2.4 9.7-.8 2.8-2.4 9-3.2 12.5-.9 3.1-4.7 18.5-.6 2.1-2.4 9.7c-3.4 13.5-3.4 13.5-6.6 19.6-2.8 1.4-5 1.2-8 1l-2-2c.1-2 .1-2 .6-4.3l.6-2.7q1.7-6.3 4-12.4c2.1-9.5.5-19.5-.4-29.1l-.6-7-2-20.5-.3-3-.6-5.5c-.4-3.8-.5-6 1-9.5 1.7-2 1.7-2 4.8-2.4"></path>
  <path fill="#eee" d="M1561.5 294.4h9.8c8 0 8 0 11 2.4 1.9 2.4 2.2 3.3 2 6.4l-.2 2.3-.2 2.4v2.5c-.4 4.5-.9 8-3.9 11.6-3 .4-3 .4-6 0-2-2-2-2-2.2-4.6v-3l.1-3 .1-2.4c-3.4-.7-3.4-.7-7-1-4.4 4.4-3.6 12-4 17.9l-.3 3.4q-1 11.8-.7 23.7h9l.4-3.9c.3-3.9.3-3.9 2.6-6.1 3.6-.2 3.6-.2 7 0 1.9 1.9 1.2 5 1.3 7.6 0 5.7-.3 9.6-3.3 14.4-4.3 2.9-8.3 2.4-13.4 2.4h-8.2c-3.5-.6-5-1.7-7.4-4.4-.7-3-.5-5.8-.4-8.8v-2.7a435 435 0 0 1 2.6-36.8l.5-5.5.2-2.6c.7-7 2.6-12.2 10.6-12.2m-439.9-20.9c2.4.5 2.4.5 4.1 2 1.9 3.6 1.1 6 .5 10-.6 5-.6 5 1.3 9.6 2.1 1.5 2.1 1.5 5.5 2.9 0 3.2 0 3.2-1 7-1.8 1.2-1.8 1.2-4 2.3-3.1 1.7-3.1 1.7-4.8 4.8l-.4 2.4-.4 2.7-.4 2.8-.4 2.7-1.2 8.3-.4 2.8c-1.4 9-1.4 9-1 18.2 2.8 2.7 2.8 2.7 6 4 1 1 1 1 1.3 4.4-.3 3.6-.3 3.6-2 5.3-3 1.7-5.2 1.8-8.7 1.8h-3.4c-3.2-.5-3.2-.5-6.1-2.4-3-4.4-2.3-7.4-1.6-12.5l.3-2.7 2.4-18.2.8-5.8a87 87 0 0 0 1-16.9c-2-2.2-2-2.2-4-4-.6-3-.6-3 0-6 1.8-2.1 3.6-3.4 6-5h2l.3-3.4.5-4.4.1-2.2a15 15 0 0 1 3-8.5c2.1-1.5 2.1-1.5 4.7-2"></path>
  <path fill="#f6f6f6" d="M140.5 165.4h3.7l4 .1h3.8c9.4 0 9.4 0 12 1.8 1.4 2.3 1 3.3.5 6l-.6 2.4-.6 2.7-1.2 5.4-.6 2.7q-1.3 6.4-1.8 13c-1 3.3-2 4.4-4.7 6.5-3.1.5-3.1.5-6.7.4h-4L126 206c-3.5-5.2-1.2-11.5-.3-17.3l1.6-10.6.6-3.8c2.2-6.7 5.7-9 12.6-8.9"></path>
  <path fill="#efefef" d="M1290.7 274c2.3 1 2.3 1 4.3 4q0 4.1-.4 8.2l-.1 2.3-.5 5.5 2.4.9c2.6 1.1 2.6 1.1 3.6 3.1.5 5.3.5 5.3-1.2 7.8-1.8 1.2-1.8 1.2-4.3 2-2.7 1-2.7 1-3.4 3.3l-.3 2.7-.4 3-.4 3.2-.4 3.4-1.2 10.5-.4 3.6c-1 7.2-1 7.2-1 14.5l3 1.9c3 2.1 3 2.1 4 5.7 0 3.4 0 3.4-2 6.4-3 1-5.3 1.1-8.5 1.1h-3c-2.5-.1-2.5-.1-5.5-1.1-2.8-4.5-2-9-1.3-14l.3-2.7.6-6 1.6-15 .8-7.8.4-3.6.4-3.2c.2-2.8.2-2.8.2-5.7l-3-1c-1.4-2.8-1.3-4.9-1-8 1.8-2.4 1.8-2.4 4-4h3l.3-3.3.4-4.4.1-2.2c.5-4 1-5.8 3.6-9.1 2.6-2 2.6-2 5.3-2"></path>
  <path fill="#ededed" d="M1317 294.5h17.2c3.5.6 4.7 1.6 6.8 4.5.3 2.3.3 2.3 0 4.8l-.2 2.8-.4 2.8-.2 2.9c-1 8.9-1 8.9-4.2 12.7-3 1-3 1-6 1-1.7-1-1.7-1-3-3-.3-3.3-.3-3.3-.1-7.1l.1-6.9c-1.2-1.4-1.2-1.4-4.6-1h-3.4c-2.2 11.6-3.2 23.4-4.2 35.1l-.8 8-.2 2.4q-.5 6.4-2.8 12.5c-6.6 1.3-6.6 1.3-10-1-1.2-7.7.4-16.2 1.2-24l.3-3.6 2.8-26.4.3-3.4.4-3.3q0-1.4.3-2.8c1.6-5.7 5.1-7 10.6-7"></path>
  <path fill="#eee" d="M1711 257c2.7-.5 5.2-.2 8 0 1 1 1 1 1.2 4.8-.1 8.7-1 17.3-1.7 25.9l-4.7 58.5-.2 2.3-1 11.4-.1 2.1c-.6 2.5-1.5 3.5-3.5 5-5.4-.4-5.4-.4-7-2-.7-11.7.6-23.5 1.5-35.2l4.8-63.8c.3-3.7.6-5.8 2.7-9"></path>
  <path fill="#ededed" d="M1145 294.5c5.8.3 5.8.3 8 2.5.4 11.3-2.2 23.3-3.5 34.5l-2 16.6-.4 3q-.8 7.6-3.1 14.9c-6.6 1.3-6.6 1.3-10-1-1.1-8 .3-16.8 1.2-24.8l.4-3.6 2.8-25.8.3-3.4.4-3.2.3-2.7c.8-3.4 2-6.1 5.6-7"></path>
  <path fill="#ebebec" d="M1159 318c2-.3 2-.3 4.4-.3l14.6.3c2.1 5.4 2.1 5.4 1.6 8-2.4 4.9-2.4 4.9-4.6 6l-7.4.2h-2.1c-3.7 0-5.3 0-8.5-2.2-.4-2-.4-2-.3-4.4v-2.4c.3-2.2.3-2.2 2.3-5.2"></path>
  <path fill="#e6e7e6" d="M1154 269c2.4 3.5 2.4 4.8 2 9-1 3.3-1 3.3-3 6-3.7.9-3.7.9-7 1-2.5-2.6-3-3.9-3.3-7.5.3-3.2.5-5 2.3-7.5 3-1.5 5.7-1.2 9-1"></path>
</svg>